<?xml version="1.0" encoding="UTF-8"?>
<!-- Created with Inkscape (http://www.inkscape.org/) -->
<svg width="40" height="70" version="1.1" viewBox="0 0 40 70" xmlns="http://www.w3.org/2000/svg" xmlns:cc="http://creativecommons.org/ns#" xmlns:dc="http://purl.org/dc/elements/1.1/" xmlns:rdf="http://www.w3.org/1999/02/22-rdf-syntax-ns#">
 <defs>
  <marker id="marker7706" overflow="visible" orient="auto">
   <path transform="matrix(-.4 0 0 -.4 -4 0)" d="m0 0 5-5-17.5 5 17.5 5z" fill="#08f" fill-rule="evenodd" stroke="#08f" stroke-width="1pt"/>
  </marker>
  <marker id="Arrow1Mend" overflow="visible" orient="auto">
   <path transform="matrix(-.4 0 0 -.4 -4 0)" d="m0 0 5-5-17.5 5 17.5 5z" fill="#08f" fill-rule="evenodd" stroke="#08f" stroke-width="1pt"/>
  </marker>
 </defs>
 <metadata>
  <rdf:RDF>
   <cc:Work rdf:about="">
    <dc:format>image/svg+xml</dc:format>
    <dc:type rdf:resource="http://purl.org/dc/dcmitype/StillImage"/>
    <dc:title/>
   </cc:Work>
  </rdf:RDF>
 </metadata>
 <g transform="translate(0 -1052.5)" fill="none" stroke="#08f">
  <g stroke-opacity=".53333" stroke-width=".15">
   <path d="m10 1102.5h35"/>
   <path d="m10 1092.5h35"/>
   <path d="m10 1082.5h35"/>
   <path d="m10 1072.5h35"/>
   <path d="m10 1062.5h35"/>
   <path d="m20 1112.5v-65"/>
   <path d="m30 1112.5v-65"/>
  </g>
  <g>
   <path d="m10 1122.5v-65" marker-end="url(#marker7706)" stroke-width=".5"/>
   <path d="m0 1112.5h35" marker-end="url(#Arrow1Mend)" stroke-width=".5"/>
   <g stroke-width=".25">
    <path d="m20 1110v5"/>
    <path d="m30 1110v5"/>
    <path d="m12.5 1102.5h-5"/>
    <path d="m12.5 1092.5h-5"/>
    <path d="m12.5 1082.5h-5"/>
    <path d="m12.5 1072.5h-5"/>
    <path d="m12.5 1062.5h-5"/>
   </g>
  </g>
 </g>
 <g display="none" fill="none" stroke="#44f" stroke-linecap="round" stroke-width="2">
  <path d="m10 20v10"/>
  <path d="m20 20v10"/>
  <path d="m30 20v10"/>
  <path d="m10 40v10"/>
  <path d="m20 40v10"/>
  <path d="m30 40v10"/>
 </g>
 <g display="none" fill="none" stroke-linecap="round" stroke-width="2">
  <g stroke="#000">
   <path d="m10 20v10"/>
   <path d="m20 20v10"/>
   <path d="m30 20v10"/>
   <path d="m10 40v10"/>
   <path d="m20 40v10"/>
   <path d="m30 40v10"/>
  </g>
  <path d="m10 30 10 10" stroke="#44f"/>
  <path d="m20 30 10 10" stroke="#44f"/>
 </g>
 <g display="none" fill="none" stroke-linecap="round" stroke-width="2">
  <g stroke="#000">
   <path d="m10 20v10l10 10v10"/>
   <path d="m20 20v10l10 10v10"/>
   <path d="m30 20v10"/>
   <path d="m10 40v10"/>
  </g>
  <path d="m10 50 10 10 10-10" stroke="#44f"/>
  <path d="m30 20-10-10-10 10" stroke="#44f"/>
 </g>
 <g fill="none" stroke-linecap="round" stroke-width="2">
  <path d="m30 30v-10l-10-10-10 10v10l10 10v10" stroke="#000"/>
  <path d="m10 40v10l10 10 10-10v-10l-10-10v-10" stroke="#000"/>
  <path d="m10 40 5-5" stroke="#44f"/>
  <path d="m30 30-5 5" stroke="#44f"/>
 </g>
</svg>
